<?xml version="1.0" standalone="no"?>
<!DOCTYPE svg PUBLIC "-//W3C//DTD SVG 20010904//EN"
 "http://www.w3.org/TR/2001/REC-SVG-20010904/DTD/svg10.dtd">
<svg version="1.0" xmlns="http://www.w3.org/2000/svg"
 width="250.000000pt" height="160.000000pt" viewBox="0 0 250.000000 160.000000"
 preserveAspectRatio="xMidYMid meet">

<g transform="translate(0.000000,160.000000) scale(0.100000,-0.100000)"
fill="#000000" stroke="none">
<path d="M357 1163 c-20 -39 -157 -368 -157 -376 0 -4 22 -7 50 -7 50 0 50 0
75 50 25 50 25 50 75 50 28 0 50 5 50 10 0 17 -32 74 -47 85 -12 9 -10 19 8
63 12 28 25 52 29 52 5 0 16 -22 26 -49 13 -37 30 -59 64 -85 43 -32 91 -48
89 -28 0 4 -24 63 -53 132 l-52 125 -72 3 c-69 3 -71 2 -85 -25z"/>
<path d="M1845 1165 c-5 -2 -22 -6 -37 -9 -41 -9 -95 -61 -114 -111 -33 -89 6
-194 88 -236 54 -27 153 -24 195 7 25 19 28 28 31 93 l3 71 -66 0 c-58 0 -65
-2 -65 -19 0 -16 8 -20 38 -23 35 -3 37 -5 40 -40 3 -41 -8 -52 -68 -62 -75
-14 -150 58 -150 143 0 104 97 168 196 131 26 -10 43 -2 44 22 0 18 -106 44
-135 33z"/>
<path d="M2187 1156 c-90 -33 -138 -114 -123 -207 16 -97 74 -151 170 -157 73
-4 115 15 160 71 28 35 31 45 31 111 0 62 -4 78 -27 113 -43 65 -137 96 -211
69z m150 -80 c41 -45 48 -118 17 -178 -45 -87 -186 -80 -224 12 -19 47 -8 135
21 166 33 36 56 44 109 40 35 -3 51 -11 77 -40z"/>
<path d="M790 975 l0 -185 80 0 c79 0 80 0 80 25 0 24 -3 25 -55 25 l-55 0 0
160 0 160 -25 0 -25 0 0 -185z"/>
<path d="M1010 975 l0 -185 85 0 c84 0 85 0 85 25 0 24 -3 25 -60 25 l-60 0 0
60 0 60 45 0 c41 0 45 2 45 25 0 23 -4 25 -46 25 l-45 0 3 53 3 52 53 3 c44 3
52 6 52 23 0 17 -7 19 -80 19 l-80 0 0 -185z"/>
<path d="M1232 1138 c43 -69 88 -147 88 -154 0 -5 -25 -51 -55 -102 l-54 -93
32 3 c28 3 36 11 71 76 l40 73 16 -28 c9 -15 29 -49 44 -75 23 -41 31 -48 57
-48 l31 0 -20 33 c-11 17 -38 61 -59 97 l-40 65 54 88 53 88 -32 -3 c-28 -3
-37 -12 -69 -66 l-36 -63 -34 65 c-32 61 -36 66 -68 66 -32 0 -33 -1 -19 -22z"/>
<path d="M1554 835 c-10 -25 4 -45 30 -45 13 0 26 7 30 15 9 25 -5 45 -30 45
-14 0 -27 -7 -30 -15z"/>
<path d="M236 714 c-9 -23 -7 -31 4 -14 7 11 11 9 19 -12 5 -14 15 -29 21 -33
6 -4 2 11 -9 34 -24 46 -26 48 -35 25z"/>
<path d="M302 693 c-2 -39 0 -43 21 -42 16 1 17 3 5 6 -11 3 -18 17 -21 41
l-4 37 -1 -42z"/>
<path d="M421 713 c11 -18 11 -25 1 -35 -6 -6 -12 -17 -12 -22 0 -6 5 -3 11 7
10 18 11 18 32 0 21 -18 21 -18 4 6 -13 19 -14 29 -5 45 10 18 9 19 -4 9 -11
-10 -17 -10 -27 0 -10 9 -10 7 0 -10z"/>
<path d="M527 723 c-12 -12 -7 -50 8 -63 19 -16 49 -9 53 13 2 9 -1 17 -7 17
-6 0 -8 -7 -4 -16 4 -12 0 -15 -18 -12 -20 2 -24 9 -24 36 0 17 0 32 -1 32 0
0 -4 -3 -7 -7z"/>
<path d="M614 716 c-15 -39 21 -80 54 -60 19 12 28 52 15 65 -4 4 -8 -6 -8
-24 0 -27 -4 -32 -25 -32 -22 0 -25 4 -25 33 0 35 -3 40 -11 18z"/>
<path d="M216 664 c-5 -14 -4 -15 9 -4 17 14 19 20 6 20 -5 0 -12 -7 -15 -16z"/>
<path d="M358 653 c6 -2 18 -2 25 0 6 3 1 5 -13 5 -14 0 -19 -2 -12 -5z"/>
</g>
</svg>
